<svg width="1024" height="1024" viewBox="0 0 1024 1024" fill="none" xmlns="http://www.w3.org/2000/svg">
<rect width="1024" height="1024" fill="url(#paint0_linear_2014_20)"/>
<path d="M649.4 473.002C671.453 485.734 682.479 492.1 686.179 500.411C689.407 507.661 689.407 515.939 686.179 523.189C682.479 531.5 671.453 537.866 649.4 550.598L476.6 650.364C454.547 663.096 443.521 669.462 434.473 668.511C426.581 667.682 419.412 663.542 414.747 657.123C409.4 649.762 409.4 637.03 409.4 611.566L409.4 412.034C409.4 386.57 409.4 373.838 414.747 366.477C419.412 360.058 426.581 355.918 434.473 355.089C443.521 354.138 454.547 360.504 476.6 373.236L649.4 473.002Z" fill="#F5F5F5"/>
<defs>
<linearGradient id="paint0_linear_2014_20" x1="512" y1="0" x2="512" y2="1024" gradientUnits="userSpaceOnUse">
<stop stop-color="#0A66C2"/>
<stop offset="1" stop-color="#084D91"/>
</linearGradient>
</defs>
</svg>
